<svg width="15px" height="11px" viewBox="-1 -1 15 11" version="1.1" xmlns="http://www.w3.org/2000/svg" xmlns:xlink="http://www.w3.org/1999/xlink">
    <!-- Generator: Sketch 3.7.1 (28215) - http://www.bohemiancoding.com/sketch -->
    <desc>Created with Sketch.</desc>
    <defs></defs>
    <path d="M10,5 C10,2.23857625 7.76142375,0 5,0 C2.23857625,0 0,2.23857625 0,5" id="Oval-1" stroke="#696969" stroke-width="1.5" stroke-linecap="round" fill="#FFFFFF" fill-rule="evenodd"></path>
    <path d="M10.6582234,5.97445118 C10.5368288,6.01491605 10.3999974,6.00907044 10.2765027,5.94732312 L6.27650273,3.94732312 C6.02951348,3.8238285 5.92940131,3.52349198 6.05289593,3.27650273 C6.17639056,3.02951348 6.47672708,2.92940131 6.72371633,3.05289593 L10.2765027,4.82928914 L12.0528959,1.27650273 C12.1763906,1.02951348 12.4767271,0.929401308 12.7237163,1.05289593 C12.9707056,1.17639056 13.0708177,1.47672708 12.9473231,1.72371633 L10.9473231,5.72371633 C10.8855758,5.84721095 10.779618,5.93398631 10.6582234,5.97445118 Z" id="Shape" stroke="#696969" stroke-width="0.5" fill="#696969" fill-rule="evenodd"></path>
    <circle id="Oval-1" stroke="#696969" stroke-width="1" fill="#696969" fill-rule="evenodd" cx="5" cy="8" r="1"></circle>
</svg>
