<svg width="16" height="16" viewBox="0 0 16 16" xmlns="http://www.w3.org/2000/svg">
  <title>
    debugger-step-out-expanded
  </title>
  <g fill="#696969" fill-rule="evenodd">
    <path d="M14.25 14.595V10.5a.5.5 0 0 0-1 0v4.095a.5.5 0 0 0 1 0zM14.25 5.595V1.5a.5.5 0 0 0-1 0v4.095a.5.5 0 0 0 1 0zM12 7.5a.498.498 0 0 1-.146.354l-4.5 4.5a.5.5 0 0 1-.708-.708L10.293 8H3.5v5.5a.5.5 0 1 1-1 0v-6a.5.5 0 0 1 .61-.488.427.427 0 0 1 .1-.012h7.083L6.646 3.354a.5.5 0 1 1 .708-.708l4.5 4.5A.498.498 0 0 1 12 7.5z"/>
  </g>
</svg>
