<?xml version="1.0" encoding="UTF-8"?>
<svg width="9px" height="15px" viewBox="0 0 9 15" version="1.1" xmlns="http://www.w3.org/2000/svg" xmlns:xlink="http://www.w3.org/1999/xlink">
    <!-- Generator: Sketch 47.1 (45422) - http://www.bohemiancoding.com/sketch -->
    <title>Group 2</title>
    <desc>Created with Sketch.</desc>
    <g id="Symbols" stroke="none" stroke-width="1" fill="none" fill-rule="evenodd">
        <g id="Group-2" transform="translate(-3.000000, 0.000000)" fill-rule="nonzero" fill="#000000">
            <g transform="translate(2.000000, 0.000000)" id="path10">
                <path d="M8.66478978,0.152329483 L6.24859226,7.23234215 L6.24859226,7.23234215 C6.22451137,7.30290469 6.14778771,7.34058551 6.07722517,7.31650462 C6.0437665,7.30508617 6.01612208,7.2809984 6.00023206,7.24941723 L2.49196511,0.276788279 L2.49196511,0.276788279 C2.4537519,0.200840088 2.3759926,0.152917255 2.29097274,0.152917255 L1.08420686,0.152917255 L1.08420686,0.152917255 C1.02897839,0.152917255 0.984206865,0.19768878 0.984206865,0.252917255 C0.984206865,0.268916365 0.988045664,0.284681937 0.99540091,0.2988901 L5.47310495,8.94849143 L5.47310495,8.94849143 C5.53346173,9.06508289 5.54553974,9.2007357 5.50673082,9.3261565 L4.0917648,13.8989752 L4.0917648,13.8989752 C4.06260539,13.9932111 3.97546399,14.0574648 3.87681975,14.0574648 L1.45804052,14.0574648 L1.45804052,14.0574648 C1.33377645,14.0574648 1.23304051,14.1582007 1.23304051,14.2824648 L1.23304051,14.775 L1.23304051,14.775 C1.23304051,14.8992641 1.33377645,15 1.45804052,15 L4.50020953,15 L4.50020953,15 C4.71271509,15 4.90200445,14.8656767 4.97216898,14.6650887 L10.0088745,0.266035474 L10.0088745,0.266035474 C10.0453448,0.161773071 9.99038856,0.0476866038 9.88612615,0.0112162185 C9.86490135,0.00379190571 9.84257651,2.78889645e-14 9.82009068,2.5895952e-14 L8.87773108,-4.83289971e-14 L8.87773108,-4.79061235e-14 C8.78147405,-5.47279145e-14 8.69587888,0.061231278 8.66478978,0.152329483 Z" transform="translate(5.502176, 7.500000) scale(1, -1) translate(-5.502176, -7.500000) "></path>
            </g>
        </g>
    </g>
</svg>
