<!-- This Source Code Form is subject to the terms of the Mozilla Public
   - License, v. 2.0. If a copy of the MPL was not distributed with this
   - file, You can obtain one at http://mozilla.org/MPL/2.0/. -->
<svg width="16" height="16" xmlns="http://www.w3.org/2000/svg">
  <path d="M13.502 11c-.98 2.35-3.298 4-6.002 4C3.91 15 1 12.09 1 8.5S3.91 2 7.5 2c3.074 0 5.65 2.133 6.326 5h-1.033C12.14 4.69 10.018 3 7.5 3 4.462 3 2 5.462 2 8.5S4.462 14 7.5 14c2.137 0 3.99-1.22 4.9-3h1.102z"/>
  <path d="M14 1L8 7h6V1zm-1 1L9 6h4V2z" fill-rule="evenodd"/>
</svg>
